HIERARCHY
ROOT Hips
{
  OFFSET 49.2104 54.4829 -9.96818
  CHANNELS 6 Xposition Yposition Zposition Zrotation Xrotation Yrotation
  JOINT spine
  {
    OFFSET 0 5.95438 0.342407
    CHANNELS 3 Zrotation Xrotation Yrotation
    JOINT spine1
    {
      OFFSET 0 8.85602 0
      CHANNELS 3 Zrotation Xrotation Yrotation
      JOINT spine2
      {
        OFFSET 0 8.48567 0
        CHANNELS 3 Zrotation Xrotation Yrotation
        JOINT Neck
        {
          OFFSET 0 21.7863 1.0387
          CHANNELS 3 Zrotation Xrotation Yrotation
          JOINT Head
          {
            OFFSET 0 6.5822 0
            CHANNELS 3 Zrotation Xrotation Yrotation
            End Site
            {
              OFFSET 0 15.9326 -5.25436
            }
          }
        }
        JOINT RightShoulder
        {
          OFFSET -3.57307 9.16386 -0.497525
          CHANNELS 3 Zrotation Xrotation Yrotation
          JOINT RightArm
          {
            OFFSET 0 12.0192 0
            CHANNELS 3 Zrotation Xrotation Yrotation
            JOINT RightArmRoll
            {
              OFFSET 0 6.06755 0
              CHANNELS 3 Zrotation Xrotation Yrotation
              JOINT RightForeArm
              {
                OFFSET 0 17.6726 0
                CHANNELS 3 Zrotation Xrotation Yrotation
                JOINT RightForeArmRoll
                {
                  OFFSET 0 6.80872 0
                  CHANNELS 3 Zrotation Xrotation Yrotation
                  JOINT RightHand
                  {
                    OFFSET 0 13.6636 0
                    CHANNELS 3 Zrotation Xrotation Yrotation
                    End Site
                    {
                      OFFSET 0 0 0
                    }
                  }
                }
              }
            }
          }
        }
        JOINT LeftShoulder
        {
          OFFSET 3.57307 9.16386 -0.497525
          CHANNELS 3 Zrotation Xrotation Yrotation
          JOINT LeftArm
          {
            OFFSET 0 12.0192 0
            CHANNELS 3 Zrotation Xrotation Yrotation
            JOINT LeftArmRoll
            {
              OFFSET 0 6.06755 0
              CHANNELS 3 Zrotation Xrotation Yrotation
              JOINT LeftForeArm
              {
                OFFSET 0 17.6726 0
                CHANNELS 3 Zrotation Xrotation Yrotation
                JOINT LeftForeArmRoll
                {
                  OFFSET 0 6.80872 0
                  CHANNELS 3 Zrotation Xrotation Yrotation
                  JOINT LeftHand
                  {
                    OFFSET 0 13.6636 0
                    CHANNELS 3 Zrotation Xrotation Yrotation
                    End Site
                    {
                      OFFSET 0 0 0
                    }
                  }
                }
              }
            }
          }
        }
      }
    }
  }
  JOINT RightUpLeg
  {
    OFFSET -5.27774 -0.967797 -0.811858
    CHANNELS 3 Zrotation Xrotation Yrotation
    JOINT RightUpLegRoll
    {
      OFFSET 0 16.0214 0
      CHANNELS 3 Zrotation Xrotation Yrotation
      JOINT RightLeg
      {
        OFFSET 0 -19.8401 0
        CHANNELS 3 Zrotation Xrotation Yrotation
        JOINT RightLegRoll
        {
          OFFSET 0 19.905 0
          CHANNELS 3 Zrotation Xrotation Yrotation
          JOINT RightFoot
          {
            OFFSET 0 16.5675 0
            CHANNELS 3 Zrotation Xrotation Yrotation
            JOINT RightToeBase
            {
              OFFSET 0 13.8496 0
              CHANNELS 3 Zrotation Xrotation Yrotation
              End Site
              {
                OFFSET 0.00587034 6.70728 -0.773116
              }
            }
          }
        }
      }
    }
  }
  JOINT LeftUpLeg
  {
    OFFSET 5.27774 -0.967797 -0.811858
    CHANNELS 3 Zrotation Xrotation Yrotation
    JOINT LeftUpLegRoll
    {
      OFFSET 0 16.0215 0
      CHANNELS 3 Zrotation Xrotation Yrotation
      JOINT LeftLeg
      {
        OFFSET 0 19.84 0
        CHANNELS 3 Zrotation Xrotation Yrotation
        JOINT LeftLegRoll
        {
          OFFSET 0 20.089 0
          CHANNELS 3 Zrotation Xrotation Yrotation
          JOINT LeftFoot
          {
            OFFSET 0 16.3835 0
            CHANNELS 3 Zrotation Xrotation Yrotation
            JOINT LeftToeBase
            {
              OFFSET 0 13.8496 0
              CHANNELS 3 Zrotation Xrotation Yrotation
              End Site
              {
                OFFSET -0.0263083 6.70728 -0.773117
              }
            }
          }
        }
      }
    }
  }
}
MOTION
Frames: 13
Frame Time: 0.00208333
48.4754 56.6689 -8.50302 -3.989 17.7349 5.50549 1.21736 0.868476 0.136854 2.4416 5.73965 0.0938435 2.4454 7.38385 0.055489 -11.598 31.56 0.734336 11.6666 7.85012 -4.79481 54.6211 1.68035 1.74457 120.278 17.4532 -26.4541 -2.39417e-005 1.07417e-006 -3.2896e-006 -4.02006 26.5027 -1.24026 2.05969e-005 -2.66957e-006 -2.99999 8.03007 -4.95138 0.697634 -64.2362 -3.61673 2.6091 -116.448 37.4146 20.8917 -1.42364e-005 9.22281e-012 -1.50583e-006 3.64221 -0.0293318 1.99276 -7.7195e-006 3.49447e-006 3.0116 -8.03008 -4.95139 -0.697625 -8.54 81.6364 -172.525 180 7.01616e-015 179.281 -175.444 72.5951 172.956 -1.98545e-006 3.13878e-006 1.52077 -19.8764 69.0076 20.4214 8.1365 25.2327 -3.48774 17.0785 81.3744 167.378 4.54188e-006 -4.6773e-006 -0.735011 11.4102 -70.3333 11.0279 -2.07163e-006 1.72054e-006 -1.35291 16.7433 63.9904 -16.6589 -8.13649 25.2327 3.48774 
48.4756 56.6429 -8.5149 -3.99165 17.5997 5.49194 1.21973 0.866374 0.136912 2.44634 5.73545 0.0937548 2.45014 7.37964 0.0552318 -11.624 31.5314 0.756393 11.6775 7.86879 -4.78457 54.6611 1.71206 1.75968 120.183 17.4125 -26.3969 -2.39417e-005 1.07417e-006 -3.2896e-006 -4.02683 26.7375 -1.23131 2.05969e-005 -2.66957e-006 -2.99999 8.03007 -4.95138 0.697634 -64.3152 -3.63193 2.62385 -116.382 37.4372 20.8407 -1.42364e-005 9.22679e-012 -1.50583e-006 3.64224 -0.0293774 1.99277 -7.7195e-006 3.49447e-006 3.0116 -8.03008 -4.95139 -0.697625 -8.62986 81.7264 -172.417 180 7.01615e-015 179.279 -175.451 72.607 172.962 -1.98545e-006 3.13878e-006 1.52071 -19.8726 69.0036 20.4175 8.1365 25.2327 -3.48774 17.0384 81.4622 167.408 4.54188e-006 -4.6773e-006 -0.737066 11.4081 -70.3554 11.0302 -2.07163e-006 1.72054e-006 -1.35449 16.7447 63.9913 -16.6601 -8.13649 25.2327 3.48774 
48.501 56.6113 -8.54886 -3.99442 17.4668 5.48069 1.22182 0.864095 0.136969 2.45053 5.73089 0.0936718 2.45435 7.37508 0.0549865 -11.6385 31.5009 0.772144 11.6811 7.88827 -4.77507 54.7069 1.74027 1.77161 120.088 17.3792 -26.3364 -2.39417e-005 1.07417e-006 -3.2896e-006 -4.03313 26.9544 -1.22307 2.05969e-005 -2.66957e-006 -2.99999 8.03007 -4.95138 0.697634 -64.384 -3.64561 2.63694 -116.327 37.457 20.7993 -1.42364e-005 9.21963e-012 -1.50583e-006 3.64227 -0.029423 1.99277 -7.7195e-006 3.49447e-006 3.0116 -8.03008 -4.95139 -0.697625 -8.69815 81.8138 -172.332 180 7.01615e-015 179.277 -175.459 72.6197 172.968 -1.98545e-006 3.13878e-006 1.52065 -19.8692 68.9999 20.4141 8.1365 25.2327 -3.48774 17.013 81.5464 167.423 4.54188e-006 -4.6773e-006 -0.739086 11.406 -70.3775 11.0321 -2.07163e-006 1.72054e-006 -1.35601 16.7458 63.9918 -16.6611 -8.13649 25.2327 3.48774 
48.4836 56.5885 -8.57407 -3.99734 17.3366 5.47223 1.2236 0.861605 0.137026 2.45409 5.72591 0.0935945 2.45791 7.37009 0.0547545 -11.6393 31.4681 0.780361 11.6763 7.90882 -4.76647 54.7595 1.7644 1.77983 119.993 17.3554 -26.2715 -2.39417e-005 1.07417e-006 -3.2896e-006 -4.03878 27.1471 -1.21576 2.05969e-005 -2.66957e-006 -2.99999 8.03007 -4.95138 0.697634 -64.4402 -3.65755 2.64807 -116.284 37.4734 20.7696 -1.42364e-005 9.21884e-012 -1.50583e-006 3.6423 -0.0294688 1.99277 -7.7195e-006 3.49447e-006 3.0116 -8.03008 -4.95139 -0.697625 -8.73949 81.8982 -172.276 180 7.01615e-015 179.275 -175.468 72.6333 172.976 -1.98545e-006 3.13878e-006 1.52058 -19.8661 68.9966 20.411 8.1365 25.2327 -3.48774 17.0065 81.6264 167.419 4.54188e-006 -4.6773e-006 -0.74107 11.4043 -70.3995 11.0339 -2.07163e-006 1.72054e-006 -1.35745 16.7466 63.9917 -16.6616 -8.13649 25.2327 3.48774 
48.4486 56.5668 -8.5958 -4.00042 17.2095 5.46704 1.22501 0.858875 0.137084 2.45692 5.72045 0.0935228 2.46074 7.36462 0.054537 -11.6242 31.4325 0.779817 11.6616 7.93068 -4.75894 54.8203 1.78391 1.78379 119.897 17.3429 -26.2014 -2.39417e-005 1.07417e-006 -3.2896e-006 -4.04356 27.3097 -1.20962 2.05969e-005 -2.66957e-006 -2.99999 8.03007 -4.95138 0.697634 -64.4816 -3.66753 2.65694 -116.257 37.4859 20.754 -1.42364e-005 9.21725e-012 -1.50583e-006 3.64233 -0.0295147 1.99278 -7.7195e-006 3.49447e-006 3.0116 -8.03008 -4.95139 -0.697625 -8.74823 81.9794 -172.254 180 7.01614e-015 179.273 -175.48 72.648 172.985 -1.98545e-006 3.13878e-006 1.52052 -19.8635 68.9938 20.4086 8.1365 25.2327 -3.48774 17.0231 81.7016 167.391 4.54188e-006 -4.6773e-006 -0.743017 11.4029 -70.4214 11.0355 -2.07163e-006 1.72054e-006 -1.35879 16.747 63.991 -16.6617 -8.13649 25.2327 3.48774 
48.4511 56.5415 -8.62383 -4.0037 17.0858 5.46559 1.22601 0.855871 0.137142 2.45892 5.71444 0.0934567 2.46275 7.35861 0.0543356 -11.5909 31.3937 0.76929 11.6358 7.95412 -4.75264 54.8904 1.79826 1.78297 119.802 17.344 -26.1251 -2.39417e-005 1.07417e-006 -3.2896e-006 -4.04727 27.436 -1.2049 2.05969e-005 -2.66957e-006 -2.99999 8.03007 -4.95138 0.697634 -64.5058 -3.67534 2.66325 -116.246 37.4937 20.7546 -1.42364e-005 9.22758e-012 -1.50583e-006 3.64236 -0.0295607 1.99278 -7.7195e-006 3.49447e-006 3.0116 -8.03008 -4.95139 -0.697625 -8.71859 82.057 -172.271 180 7.01614e-015 179.271 -175.494 72.6639 172.997 -1.98545e-006 3.13878e-006 1.52045 -19.8614 68.9916 20.4068 8.1365 25.2327 -3.48774 17.0672 81.7716 167.335 4.54188e-006 -4.6773e-006 -0.744925 11.4022 -70.4432 11.0371 -2.07163e-006 1.72054e-006 -1.36 16.7468 63.9895 -16.6613 -8.13649 25.2327 3.48774 
48.4591 56.5133 -8.64985 -4.0072 16.9659 5.46837 1.22656 0.852563 0.137202 2.46002 5.70782 0.0933963 2.46385 7.35199 0.0541515 -11.5374 31.3513 0.747563 11.5977 7.97938 -4.74774 54.971 1.80688 1.77682 119.706 17.3607 -26.0416 -2.39417e-005 1.07417e-006 -3.2896e-006 -4.04971 27.52 -1.20183 2.05969e-005 -2.66957e-006 -2.99999 8.03007 -4.95138 0.697634 -64.5105 -3.68076 2.66671 -116.256 37.4963 20.7737 -1.42364e-005 9.22599e-012 -1.50583e-006 3.64239 -0.0296068 1.99278 -7.7195e-006 3.49447e-006 3.0116 -8.03008 -4.95139 -0.697625 -8.64464 82.1306 -172.335 180 7.01614e-015 179.269 -175.511 72.6811 173.011 -1.98545e-006 3.13878e-006 1.52038 -19.86 68.99 20.4057 8.1365 25.2327 -3.48774 17.1431 81.8356 167.248 4.54188e-006 -4.6773e-006 -0.746793 11.4023 -70.4646 11.0385 -2.07163e-006 1.72054e-006 -1.36107 16.7461 63.9872 -16.6602 -8.13649 25.2327 3.48774 
48.4555 56.4763 -8.67882 -4.01106 16.8504 5.47524 1.22677 0.848777 0.137276 2.46043 5.70025 0.0933336 2.46426 7.34442 0.0539681 -11.4651 31.3054 0.715359 11.5472 8.00683 -4.74421 55.061 1.80984 1.76545 119.611 17.392 -25.9517 -2.39417e-005 1.07417e-006 -3.2896e-006 -4.05091 27.5642 -1.20035 2.05969e-005 -2.66957e-006 -2.99999 8.03007 -4.95138 0.697634 -64.499 -3.68373 2.66755 -116.283 37.4946 20.8083 -1.42364e-005 9.23156e-012 -1.50583e-006 3.64242 -0.029653 1.99278 -7.7195e-006 3.49447e-006 3.0116 -8.03008 -4.95139 -0.697625 -8.5255 82.1994 -172.446 180 7.01614e-015 179.268 -175.531 72.6999 173.028 -1.98545e-006 3.13878e-006 1.5203 -19.8592 68.9892 20.4053 8.1365 25.2327 -3.48774 17.2468 81.8931 167.133 4.54188e-006 -4.6773e-006 -0.748598 11.4027 -70.4862 11.0397 -2.07163e-006 1.72054e-006 -1.36202 16.7449 63.9839 -16.6585 -8.13649 25.2327 3.48774 
48.428 56.4548 -8.70157 -4.01532 16.739 5.48557 1.22679 0.844422 0.137376 2.46045 5.69153 0.093263 2.46427 7.33571 0.0537714 -11.3776 31.2567 0.67464 11.4858 8.03644 -4.74184 55.1584 1.80783 1.74952 119.515 17.4346 -25.8568 -2.39417e-005 1.07417e-006 -3.2896e-006 -4.05113 27.5774 -1.20013 2.05969e-005 -2.66957e-006 -2.99999 8.03007 -4.95138 0.697634 -64.4762 -3.68443 2.66628 -116.321 37.4904 20.8536 -1.42364e-005 9.22043e-012 -1.50583e-006 3.64245 -0.0296993 1.99279 -7.7195e-006 3.49447e-006 3.0116 -8.03008 -4.95139 -0.697625 -8.36598 82.2634 -172.599 180 7.01613e-015 179.267 -175.553 72.7201 173.046 -1.98545e-006 3.13878e-006 1.52023 -19.8588 68.9888 20.4055 8.1365 25.2327 -3.48774 17.3706 81.944 166.997 4.54188e-006 -4.6773e-006 -0.750329 11.403 -70.5082 11.0402 -2.07163e-006 1.72054e-006 -1.3629 16.7432 63.98 -16.6562 -8.13649 25.2327 3.48774 
48.4243 56.4308 -8.72777 -4.01987 16.6314 5.49904 1.22659 0.839591 0.137494 2.46003 5.68187 0.0931877 2.46385 7.32604 0.0535669 -11.276 31.2055 0.62604 11.4144 8.06787 -4.74051 55.2626 1.80123 1.7294 119.42 17.4877 -25.7575 -2.39417e-005 1.07417e-006 -3.2896e-006 -4.05047 27.5631 -1.20102 2.05969e-005 -2.66957e-006 -2.99999 8.03007 -4.95138 0.697634 -64.4425 -3.68305 2.66304 -116.37 37.4835 20.9092 -1.42364e-005 9.22043e-012 -1.50583e-006 3.64249 -0.0297458 1.99279 -7.7195e-006 3.49447e-006 3.0116 -8.03008 -4.95139 -0.697625 -8.16873 82.3229 -172.792 180 7.01613e-015 179.266 -175.577 72.7417 173.066 -1.98545e-006 3.13878e-006 1.52015 -19.8589 68.9888 20.4062 8.1365 25.2327 -3.48774 17.5136 81.989 166.841 4.54188e-006 -4.6773e-006 -0.751994 11.4031 -70.5305 11.0403 -2.07163e-006 1.72054e-006 -1.36371 16.7411 63.9754 -16.6535 -8.13649 25.2327 3.48774 
48.4403 56.4003 -8.75569 -4.02459 16.527 5.51533 1.22617 0.834376 0.137627 2.45917 5.67144 0.0931107 2.46298 7.31561 0.0533606 -11.1614 31.1519 0.570194 11.3341 8.10079 -4.74011 55.3732 1.79041 1.70544 119.324 17.55 -25.654 -2.39417e-005 1.07417e-006 -3.2896e-006 -4.04905 27.5248 -1.20289 2.05969e-005 -2.66957e-006 -2.99999 8.03007 -4.95138 0.697634 -64.3984 -3.67979 2.65794 -116.43 37.4739 20.9746 -1.42364e-005 9.22599e-012 -1.50583e-006 3.64252 -0.0297924 1.99279 -7.7195e-006 3.49447e-006 3.0116 -8.03008 -4.95139 -0.697625 -7.93655 82.3786 -173.021 180 7.01613e-015 179.265 -175.604 72.7644 173.088 -1.98545e-006 3.13878e-006 1.52007 -19.8593 68.9893 20.4073 8.1365 25.2327 -3.48774 17.6752 82.0289 166.666 4.54188e-006 -4.6773e-006 -0.753603 11.4031 -70.5531 11.0399 -2.07163e-006 1.72054e-006 -1.36445 16.7387 63.9702 -16.6504 -8.13649 25.2327 3.48774 
48.4234 56.3721 -8.7861 -4.02937 16.4254 5.53411 1.22551 0.82887 0.137767 2.45783 5.66042 0.0930352 2.46163 7.3046 0.053158 -11.0349 31.0963 0.507737 11.2456 8.13488 -4.74055 55.4897 1.77575 1.678 119.227 17.6205 -25.5468 -2.39417e-005 1.07417e-006 -3.2896e-006 -4.047 27.4659 -1.20558 2.05969e-005 -2.66957e-006 -2.99999 8.03007 -4.95138 0.697634 -64.3442 -3.67482 2.65111 -116.501 37.4618 21.0494 -1.42364e-005 9.21725e-012 -1.50583e-006 3.64255 -0.0298391 1.9928 -7.7195e-006 3.49447e-006 3.0116 -8.03008 -4.95139 -0.697625 -7.67243 82.431 -173.283 180 7.01613e-015 179.264 -175.631 72.788 173.111 -1.98545e-006 3.13878e-006 1.51999 -19.8601 68.9901 20.4089 8.1365 25.2327 -3.48774 17.8544 82.0644 166.474 4.54188e-006 -4.6773e-006 -0.755165 11.4031 -70.5757 11.0391 -2.07163e-006 1.72054e-006 -1.36513 16.7359 63.9646 -16.647 -8.13649 25.2327 3.48774 
48.4125 56.3508 -8.80917 -4.0341 16.3262 5.55508 1.2246 0.823166 0.137909 2.45599 5.64901 0.0929644 2.45977 7.29319 0.0529648 -10.8975 31.0387 0.439301 11.1501 8.16981 -4.7417 55.6117 1.75764 1.64745 119.13 17.6982 -25.4363 -2.39417e-005 1.07417e-006 -3.2896e-006 -4.04442 27.3899 -1.20896 2.05969e-005 -2.66957e-006 -2.99999 8.03007 -4.95138 0.697634 -64.2805 -3.66833 2.64268 -116.581 37.4471 21.1332 -1.42364e-005 9.21884e-012 -1.50583e-006 3.64258 -0.029886 1.9928 -7.7195e-006 3.49447e-006 3.0116 -8.03008 -4.95139 -0.697625 -7.3794 82.4804 -173.575 180 7.01613e-015 179.263 -175.66 72.8124 173.135 -1.98545e-006 3.13878e-006 1.51991 -19.8611 68.9912 20.4108 8.1365 25.2327 -3.48774 18.0501 82.096 166.264 4.54188e-006 -4.6773e-006 -0.756691 11.4031 -70.5984 11.038 -2.07163e-006 1.72054e-006 -1.36575 16.7329 63.9585 -16.6432 -8.13649 25.2327 3.48774 
